<svg id="Capa_1" data-name="Capa 1" xmlns="http://www.w3.org/2000/svg" viewBox="0 0 1000 1000"><defs><style>.cls-1{fill:none;stroke:#3874b1;stroke-linejoin:round;stroke-width:50.15135px;}</style></defs><path class="cls-1" d="M764.03264,499.9485a120.59677,120.59677,0,0,1-37.21122,166.43957l-.00487.00308L500.00429,810.32835,273.17876,666.39115l-.0001-.00006a120.59675,120.59675,0,0,1-37.20825-166.44442l1.00332-1.581a120.59676,120.59676,0,0,1,166.43932-37.20636L500.00429,522.454l96.5866-61.29167a120.59676,120.59676,0,0,1,166.44233,37.2112Z"/><path class="cls-1" d="M572.32735,333.05745a72.32735,72.32735,0,0,1-144.6547,0c0-39.94529,72.32735-143.3858,72.32735-143.3858S572.32735,293.11216,572.32735,333.05745Z"/></svg>