<svg id="Capa_1" data-name="Capa 1" xmlns="http://www.w3.org/2000/svg" viewBox="0 0 624.17578 713.37413"><defs><style>.cls-1{fill:#3874b1;stroke:#3874b1;stroke-linejoin:round;stroke-width:50.15135px;}</style></defs><path class="cls-1" d="M576.12053,371.8801a120.59675,120.59675,0,0,1-37.21122,166.43956l-.00487.00309L312.09218,682.25994,85.26665,538.32275l-.0001-.00006A120.59675,120.59675,0,0,1,48.0583,371.87827l1.00332-1.581A120.59677,120.59677,0,0,1,215.50094,333.0909l96.59124,61.29466,96.58661-61.29167a120.59675,120.59675,0,0,1,166.44232,37.2112Z"/><path class="cls-1" d="M384.41524,174.5a72.32735,72.32735,0,0,1-144.6547,0c0-39.94529,72.32735-143.3858,72.32735-143.3858S384.41524,134.55469,384.41524,174.5Z"/></svg>